<?xml version="1.0" encoding="UTF-8"?>
<svg width="2.3615in" height="1.2607in" clip-rule="evenodd" fill-rule="evenodd" image-rendering="optimizeQuality" shape-rendering="geometricPrecision" text-rendering="geometricPrecision" version="1.1" viewBox="0 0 2361.6 1261" xml:space="preserve" xmlns="http://www.w3.org/2000/svg"><defs><style type="text/css"><![CDATA[
    .fil0 {fill:#47B5E7;fill-rule:nonzero}
    .fil2 {fill:#FEFEFE;fill-rule:nonzero}
    .fil1 {fill:#FFF225;fill-rule:nonzero}
   ]]></style></defs><g transform="translate(-205.23 -201)" fill-rule="nonzero"><polygon class="fil0" points="1670 1379 219 1379 205 1462 1656 1462" fill="#47b5e7"/><path class="fil1" d="m2567 736c0-3-8-6-14-10-18-15-83-79-210-75-16 1-31 2-44 4 27-9 41-14 49-17 10-4 75-26 110-140 3-10 11-33 9-35-3-2-24 2-47 15-22 13-97 25-105 27-5 1-27-2-60 15 37-38 76-92 86-167 5-36 3-51 1-51s-3 0-6 1c-8 2-17 9-44 27s-56 38-56 38 10-98 7-101c-3-2-59-2-145 94 0 0 10-82-6-113 0 0-4-22-8-34-2-6-6-12-7-12-1 1-9 2-21 16-19 22-107 48-121 162-11-46-34-107-92-138-33-32-47-41-49-41-1 1-1 15-6 47-6 36-11 47-11 47s-61-53-62-55c-3-3-40 114-29 172 0 0-19-15-54-33-40-20-106-24-106-21 1 5 56 113 80 151 0 0-149-26-147-16 1 3 4 9 10 34 0 0-59-1-58 4s44 77 48 81c0 0-45 9-55 9-6 0 30 102 131 127 14 4 28 6 41 8 11 1 25 2 37 4 60 2 99-13 92-35 0 0-2-8-63-31 0 0 2-7 6-8s68 22 64 19c-5-4-28-30-24-30s34 13 44 4 16-25 22-29-17-25 14-15c0 0 21-12 4-30-16-19-67-80 16-6 20 18 70-36 66-65 0 0 20 20 24 22s32 5 39-4c3-4-10-46-2-64 0 0 4 0 7 4s4 47 19 55c0 0 17-10 20-17 3-8-5 47 47 23 0 0 25-22 32-23s-5 26 1 36 27 16 34 4 39-36 41-35c3 1-16 51-18 56-3 7-5 18-5 18s2 14 20 18c0 0 33-19 67-44-4 4-7 9-11 14 0 0-44 46-44 52 0 7 15 21 28 13 12-8 42-21 45-19s7 8 1 12-41 22-41 22 40 3 89-7c-53 21-71 54-71 57 2 10 84-11 86-6 12 27-26 10-43 13s-59 4-20 37c0 0 7 1-12 12s43 18 50 26-62-1-60 20c1 21-12 8 34 57 0 0-28-6-31-3-3 4 60 57 60 72 0 0-13 9-18 1-6-8-44-50-50-52-5-1-14 1-18 10 0 0 17 39 12 40s-32-17-32-17-17 8-12 23c6 16 53 69 50 72 0 0-4 9-10 8s-39-59-47-62c-8-2 9 55 9 55s-29-31-37-37-9 7-9 7l8 65s-91-136-69 26c0 0-2 9-5 9s-22-54-20-68c2-15-16 40-16 40s-29-114-88 3c0 0-4-44-13-52s-16-10-19-10c-2 0-14 0-25 20-42 54-69 124-76 184-1 42 3 117 1 133-1 9 1 10 2 14 0 1 16-12 21-15 7-5 84-107 88-133 0 0 41 178 54 198 3 4 5 9 8 6 4-6 10-23 15-24 6-2 23-4 32-29s25-50 33-116c0 0 86 110 98 120 4 4 28-35 38-98s-12-147-26-150c0 0-6-9 11-3 9 3 45 66 128 113 14 8 44 8 44 8 7-19-58-189-58-189s2-2 15 3 137 86 213 48c15-8 16-9 16-9 9-37-58-107-99-139 0 0 107-4 123-33 0 0 20-7 30-21 2-2-12-27-27-38-40-28-49-39-49-39s11-14 28-19c16-5 69-38 55-54 0 0 17-15 16-19z" fill="#fff225"/><path class="fil2" d="m1590 1305 9-52c1-8 2-17 3-28s1-23 1-38c1 6 2 13 3 20s3 15 4 23l16 75h56l34-205h-56l-8 46c-1 9-3 19-4 32s-2 28-3 46l-3-18c-1-7-2-13-3-19l-3-15-17-72h-53l-34 205h56z" fill="#fefefe"/><polygon class="fil2" points="1468 1256 1473 1227 1518 1227 1526 1178 1481 1178 1486 1149 1536 1149 1544 1100 1436 1100 1402 1305 1510 1305 1518 1256" fill="#fefefe"/><path class="fil2" d="m1283 1305 9-52c1-8 2-17 3-28s1-23 1-38c1 6 2 13 3 20s3 15 4 23l16 75h56l34-205h-56l-8 46c-1 9-3 19-4 32s-2 28-3 46l-3-18c-1-7-2-13-3-19l-3-15-17-72h-53l-34 205h56z" fill="#fefefe"/><path class="fil2" d="m1055 1168c4-23-1-41-16-54-11-10-30-15-56-15h-59l-34 205h58l12-72 2-14c1 3 1 5 1 7s1 4 1 5l17 73h63l-29-85c24-9 38-27 42-51zm-57-2c-1 8-5 14-10 19s-11 7-18 7h-4l8-49h2c17 0 24 8 21 23z" fill="#fefefe"/><path class="fil2" d="m799 1229h21c-1 4-2 8-3 11-2 3-3 6-5 8s-4 4-7 5-6 2-9 2c-8 0-13-4-15-11-2-8-2-20 1-36 7-39 18-59 34-59 5 0 8 2 10 6s3 9 3 15l60-20c-10-34-32-50-66-50-26 0-47 9-65 28-18 18-29 44-35 76-5 32-2 56 10 75 12 18 31 27 57 27s48-9 64-27c15-17 26-44 32-83l1-8h-81l-7 43z" fill="#fefefe"/><polygon class="fil2" points="553 1256 558 1227 602 1227 610 1178 566 1178 570 1149 620 1149 628 1100 521 1100 487 1305 594 1305 603 1256" fill="#fefefe"/><polygon class="fil2" points="402 1305 460 1305 494 1100 436 1100" fill="#fefefe"/><path class="fil2" d="m397 1203c6-34 0-61-18-80-14-15-35-22-63-22h-50l-34 205h54c30 0 54-8 72-24 21-18 34-45 40-79zm-60 2c-6 33-19 50-40 51l17-104h2c9 0 15 5 19 14s4 22 2 39z" fill="#fefefe"/><path class="fil2" d="m1743 850c-10-18-27-28-51-28-23 0-44 9-60 27-17 18-28 43-33 73-5 33-3 58 8 77 11 18 28 28 53 28 23 0 42-9 58-27s27-43 32-74c5-32 3-58-7-76zm-50 76c-3 18-7 31-11 40-5 8-10 13-17 13-12 0-15-19-9-58 5-32 14-49 27-49s16 18 10 54z" fill="#fefefe"/><path class="fil2" d="m1573 842c-11-13-27-20-48-20-22 0-41 7-57 20-16 14-26 31-29 52-3 18 0 33 8 45s20 18 35 18c6 0 13-2 21-6-3 3-5 6-8 9-2 3-4 5-6 7l-44 58h62l26-35c30-41 47-74 51-97 4-22 0-39-11-53zm-45 50c-3 18-10 26-21 26s-16-9-13-26c3-18 10-28 21-28s15 9 12 27z" fill="#fefefe"/><path class="fil2" d="m1263 1027c20 0 37-6 52-19s24-29 27-48c2-11 1-21-3-30s-11-17-22-25l-8-6c-7-5-10-10-9-16 1-3 2-6 6-8 3-2 7-4 12-4 6 0 11 2 17 6 5 4 10 10 13 17l10-61c-13-7-26-10-40-10-16 0-29 4-42 13-4 3-9 6-12 10-4 4-7 8-10 13-6 10-10 20-12 29-1 5-1 10-1 15s2 10 4 14c2 5 5 9 9 13s8 9 14 13l8 7c6 5 9 10 8 15-1 4-3 7-6 9-4 2-8 4-13 4-13 0-24-7-33-22l-10 63c15 6 29 8 42 8z" fill="#fefefe"/><polygon class="fil2" points="1139 1027 1197 1027 1231 822 1173 822" fill="#fefefe"/><path class="fil2" d="m1019 1027 9-52c1-8 2-17 3-28s1-23 1-38c1 6 2 13 3 20s3 15 4 23l16 75h56l34-205h-56l-8 46c-1 9-3 19-4 32s-2 28-3 46l-3-18c-1-7-2-13-3-19l-3-15-17-72h-53l-34 205h56z" fill="#fefefe"/><path class="fil2" d="m963 925c6-35 0-61-18-80-14-15-35-22-63-22h-50l-34 205h54c30 0 54-8 72-24 21-18 34-45 40-79zm-60 2c-6 33-19 50-40 51l17-104h2c9 0 15 5 19 14s4 22 2 39z" fill="#fefefe"/><path class="fil2" d="m678 1027 9-52c1-8 2-17 3-28s1-23 1-38c1 6 2 13 3 20s3 15 4 23l16 75h56l34-205h-56l-8 46c-1 9-3 19-4 32s-2 28-3 46l-3-18c-1-7-2-13-3-19l-3-15-17-72h-53l-34 205h56z" fill="#fefefe"/><path class="fil2" d="m445 880c3-17-1-31-12-42-10-11-28-16-53-16h-68l-34 205h81c19 0 36-5 50-16s22-25 25-42c2-14 1-25-5-32s-16-12-31-14c27-2 43-16 47-42zm-90 63c8 0 13 2 17 5 4 4 5 8 4 15-1 6-4 11-9 15s-11 6-18 6h-2-3l7-40h5zm32-61c-1 6-4 10-8 13-5 3-10 5-17 5h-4l6-35h4 2c14 0 19 6 18 18z" fill="#fefefe"/><path class="fil2" d="m1152 1234c-2 9-4 16-6 19-3 3-7 5-12 5s-9-2-11-6-2-10 0-19l22-132h-58l-23 137c-4 26 1 45 16 57 12 9 28 14 48 14 18 0 33-4 47-13 10-6 18-14 23-21 5-8 9-17 11-29l24-145h-58l-22 132z" fill="#fefefe"/><path class="fil2" d="m1153 1048c-4-4-8-6-15-6-6 0-12 2-17 6s-8 9-9 15 0 11 4 15 9 6 15 6 11-2 16-6 8-9 9-15 0-11-4-15z" fill="#fefefe"/><path class="fil2" d="m1214 1048c-4-4-9-6-15-6s-12 2-17 6-8 9-9 15 0 11 4 15 9 6 15 6 12-2 17-6 8-9 9-15 0-11-4-15z" fill="#fefefe"/><path class="fil2" d="m546 954c-2 9-4 16-6 19-3 3-7 5-12 5s-9-2-11-6-2-10 0-19l22-132h-58l-23 137c-4 26 1 45 16 57 12 9 28 14 48 14 18 0 33-4 47-13 10-6 18-13 23-21s9-17 11-29l24-145h-58l-22 132z" fill="#fefefe"/><path class="fil2" d="m547 768c-4-4-8-6-15-6-6 0-12 2-17 6s-8 9-9 15 0 11 4 15 9 6 15 6 11-2 17-6c5-4 8-9 9-15s0-11-4-15z" fill="#fefefe"/><path class="fil2" d="m609 769c-4-4-9-6-15-6s-12 2-17 6-8 9-9 15 0 11 4 15 9 6 15 6 12-2 17-6 8-9 9-15 0-11-4-15z" fill="#fefefe"/></g></svg>
